<?xml version="1.0" standalone="no"?>
<!DOCTYPE svg PUBLIC "-//W3C//DTD SVG 20010904//EN"
 "http://www.w3.org/TR/2001/REC-SVG-20010904/DTD/svg10.dtd">
<svg version="1.0" xmlns="http://www.w3.org/2000/svg"
 width="640.000000pt" height="640.000000pt" viewBox="0 0 640.000000 640.000000"
 preserveAspectRatio="xMidYMid meet">
<metadata>
Created by potrace 1.14, written by Peter Selinger 2001-2017
</metadata>
<g transform="translate(0.000000,640.000000) scale(0.100000,-0.100000)"
fill="#000000" stroke="none">
<path d="M1504 6003 c-12 -3 -48 -39 -85 -85 -35 -45 -68 -86 -74 -92 -8 -10
-42 -53 -87 -111 -4 -5 -21 -26 -37 -45 -16 -19 -68 -84 -116 -145 -48 -60
-100 -126 -116 -145 -16 -19 -33 -39 -37 -45 -4 -5 -25 -32 -47 -60 -22 -27
-45 -56 -52 -65 -27 -34 -148 -185 -153 -190 -4 -4 -25 -31 -82 -105 -4 -5
-21 -26 -37 -45 -16 -19 -67 -82 -112 -140 -46 -58 -89 -112 -96 -120 -7 -8
-54 -67 -104 -130 -50 -63 -100 -125 -110 -138 -10 -12 -19 -26 -19 -31 0 -5
24 -27 53 -49 28 -22 63 -49 77 -62 14 -12 32 -26 40 -31 11 -6 12 -11 3 -16
-31 -22 -163 -148 -163 -157 0 -6 24 -36 53 -67 28 -30 86 -93 127 -138 41
-46 80 -89 85 -95 6 -6 44 -49 85 -95 41 -47 82 -92 90 -101 8 -9 51 -56 95
-104 44 -49 91 -101 105 -116 14 -15 50 -56 80 -90 30 -34 66 -74 80 -89 14
-14 59 -64 100 -110 41 -46 80 -89 85 -95 6 -6 48 -54 95 -106 131 -146 153
-170 180 -200 24 -26 139 -155 170 -190 19 -22 156 -173 195 -215 17 -18 58
-64 92 -102 34 -38 74 -83 90 -100 15 -18 55 -62 88 -98 33 -37 71 -79 85 -94
14 -16 52 -58 85 -95 33 -37 74 -82 90 -100 17 -18 59 -66 95 -106 36 -40 79
-88 95 -106 17 -17 62 -67 100 -110 39 -43 79 -88 90 -100 28 -31 78 -87 165
-184 41 -46 98 -108 125 -137 l50 -54 41 38 c22 21 61 57 87 81 l47 43 42 -38
c23 -21 49 -45 58 -53 8 -8 30 -27 48 -42 l33 -28 46 53 c55 62 86 96 133 147
19 21 55 62 80 90 25 28 56 64 70 79 14 15 59 65 100 110 41 46 86 96 100 111
42 47 172 191 229 255 30 33 61 67 70 76 9 9 39 43 66 74 28 31 64 72 80 90
17 18 62 67 100 110 39 43 84 93 100 110 17 18 50 57 75 85 25 29 57 64 71 79
14 14 61 66 105 115 43 50 86 97 94 106 32 35 169 187 206 230 21 24 46 51 54
60 8 9 49 53 90 99 112 125 128 142 168 186 20 22 73 81 117 130 110 124 155
174 190 211 17 18 53 58 80 89 55 63 57 65 171 191 45 49 95 105 112 125 18
20 61 67 97 105 35 38 65 74 65 80 0 5 -32 39 -72 75 -109 98 -103 89 -76 108
42 29 158 124 158 131 0 9 -38 62 -75 104 -5 6 -46 56 -89 111 -44 55 -82 102
-85 105 -4 3 -18 21 -33 42 -15 20 -33 42 -40 50 -7 7 -26 31 -42 53 -17 22
-33 42 -36 45 -3 3 -59 73 -125 155 -65 83 -121 152 -124 155 -3 3 -28 34 -56
70 -27 36 -52 67 -55 70 -3 3 -33 39 -65 80 -33 41 -64 80 -70 87 -11 14 -9
11 -85 108 -30 39 -62 77 -72 86 -10 9 -18 20 -18 24 0 4 -12 22 -27 39 -16
18 -46 54 -68 81 -22 27 -46 54 -52 61 -7 7 -13 15 -13 19 0 9 -101 129 -117
138 -14 9 -282 12 -290 3 -2 -2 -18 0 -34 4 -16 5 -31 5 -34 0 -3 -4 -20 -5
-38 -1 -18 5 -41 7 -52 5 -23 -3 -105 -5 -285 -4 -8 0 -42 -1 -75 -1 -33 -1
-67 -1 -75 0 -15 1 -147 1 -165 0 -5 0 -52 0 -104 1 -51 1 -95 -1 -98 -4 -2
-2 -18 0 -34 4 -16 5 -31 5 -34 0 -3 -4 -20 -5 -37 -1 -18 4 -45 4 -60 0 -15
-4 -29 -5 -32 -2 -5 5 -67 7 -186 4 -30 -1 -84 -1 -120 -1 -36 0 -92 0 -125 0
-33 0 -120 0 -194 0 -74 0 -136 -2 -138 -4 -3 -2 -18 0 -34 4 -16 5 -31 5 -34
0 -3 -4 -20 -5 -38 -1 -18 5 -41 7 -52 5 -23 -3 -105 -5 -285 -4 -8 0 -42 -1
-75 -1 -33 -1 -67 -1 -75 0 -15 1 -147 1 -165 0 -5 0 -52 0 -104 1 -51 1 -95
-1 -98 -4 -2 -2 -18 0 -34 4 -16 5 -31 5 -34 0 -3 -4 -20 -5 -37 -1 -18 4 -47
4 -65 1 -17 -4 -35 -4 -40 -1 -4 4 -17 5 -29 4z m357 -483 c7 5 22 5 33 1 12
-5 30 -6 41 -4 32 7 123 6 134 -2 6 -3 11 -2 11 4 0 6 11 7 28 3 15 -4 41 -6
57 -5 17 2 40 3 53 3 35 0 53 0 109 1 28 1 56 -2 62 -6 6 -3 11 -2 11 4 0 6
11 7 28 3 15 -4 41 -6 57 -5 27 2 130 3 243 1 23 0 42 -2 42 -4 0 -4 -337
-569 -376 -631 -8 -13 -14 -26 -13 -29 0 -4 -3 -10 -8 -13 -5 -3 -49 -73 -98
-156 -49 -82 -101 -169 -116 -191 -16 -23 -25 -44 -22 -48 4 -3 1 -6 -5 -6 -6
0 -13 -8 -16 -18 -4 -10 -12 -19 -19 -19 -42 -2 -94 -3 -107 -2 -8 1 -45 1
-82 0 -38 0 -98 -1 -135 -2 -37 0 -71 -3 -76 -6 -6 -4 -7 -1 -2 7 5 9 4 11 -4
6 -16 -10 -101 -13 -101 -3 0 5 -4 6 -9 2 -8 -4 -213 -7 -281 -4 -8 1 -33 1
-55 0 -22 -1 -71 -1 -109 -2 -39 0 -74 -3 -79 -6 -6 -4 -7 -1 -2 7 6 9 4 11
-5 5 -7 -4 -42 -7 -79 -6 -36 1 -86 2 -111 3 -25 0 -39 2 -32 5 6 2 12 11 12
18 0 7 3 15 8 17 4 2 23 23 42 48 19 25 37 47 41 50 4 3 45 55 93 115 48 61
92 117 99 125 8 9 33 40 56 70 24 30 56 71 72 90 60 74 95 118 124 155 17 21
37 46 45 55 8 9 37 45 65 81 27 35 54 69 60 75 5 7 20 25 32 40 114 147 136
169 172 174 20 3 50 3 67 -1 18 -4 38 -3 45 1z m1957 -1 c26 0 73 1 104 2 31
0 61 -2 67 -6 6 -3 11 -2 11 4 0 6 11 7 28 3 15 -4 41 -6 57 -5 17 2 40 3 53
3 35 0 53 0 109 1 28 1 56 -2 62 -6 6 -3 11 -2 11 4 0 6 11 7 28 3 15 -4 41
-6 57 -5 17 2 57 3 90 3 33 -1 66 -1 73 0 62 2 107 -1 118 -8 5 -4 48 -54 94
-112 45 -58 88 -110 94 -115 6 -6 16 -18 21 -26 17 -26 108 -141 133 -165 12
-13 22 -26 22 -30 0 -3 12 -21 28 -38 15 -18 45 -54 67 -81 22 -27 45 -54 50
-60 6 -6 15 -18 20 -27 11 -18 262 -332 283 -353 6 -8 12 -16 12 -19 0 -3 16
-22 35 -43 l35 -38 -58 -5 c-31 -3 -58 -2 -60 1 -1 3 -23 3 -47 -1 -24 -4 -49
-4 -54 -1 -5 4 -41 4 -79 1 -41 -3 -68 -1 -65 4 4 5 1 6 -6 2 -16 -10 -101
-13 -101 -3 0 5 -4 6 -9 3 -5 -3 -57 -6 -117 -6 -208 0 -238 -1 -247 -7 -6 -4
-7 -1 -2 7 6 9 4 11 -5 5 -7 -4 -42 -7 -79 -6 -79 2 -96 2 -186 1 -175 -4
-169 -6 -199 48 -14 26 -32 56 -39 67 -62 101 -77 127 -77 135 0 6 -4 10 -10
10 -5 0 -10 5 -10 11 0 6 -13 29 -29 52 -15 23 -30 47 -32 52 -4 9 -67 117
-126 213 -13 21 -25 45 -29 55 -3 9 -10 17 -14 17 -4 0 -10 8 -14 18 -6 18
-24 50 -69 119 -15 24 -27 47 -27 53 0 5 -4 10 -10 10 -5 0 -10 4 -10 10 0 5
-16 34 -35 64 -19 30 -35 60 -35 66 0 5 -4 10 -8 10 -6 0 -29 39 -60 102 -3 7
116 16 131 10 4 -2 29 -3 55 -3z m-195 -931 c6 -16 15 -28 19 -28 4 0 8 -6 8
-12 0 -12 46 -86 70 -115 17 -20 11 -31 -20 -35 -16 -3 -30 -1 -30 4 0 5 -4 7
-9 4 -5 -3 -57 -6 -117 -6 -208 0 -238 -1 -247 -7 -6 -4 -7 -1 -2 7 5 9 4 11
-4 6 -16 -10 -101 -13 -101 -3 0 5 -4 6 -9 3 -5 -3 -57 -6 -117 -6 -208 0
-238 -1 -247 -7 -6 -3 -7 -1 -3 5 5 9 0 9 -17 3 -14 -6 -27 -8 -29 -6 -2 3
-25 5 -51 6 -26 1 -47 4 -47 7 0 3 10 21 23 41 33 53 40 65 65 107 12 22 31
53 42 71 10 17 93 156 185 308 91 152 177 294 191 316 l25 40 205 -338 c113
-186 210 -350 217 -365z m-768 -668 c8 3 60 3 117 0 57 -3 119 -3 138 0 19 3
75 3 123 0 48 -3 94 -3 102 0 8 3 60 3 117 0 57 -3 119 -3 138 0 19 3 67 3
106 0 39 -3 88 -2 108 1 27 4 36 3 32 -6 -2 -7 -14 -46 -26 -86 -11 -41 -25
-85 -29 -99 -12 -33 -42 -136 -45 -152 -2 -7 -6 -20 -9 -28 -3 -8 -19 -60 -36
-115 -16 -55 -39 -131 -51 -170 -12 -38 -23 -77 -25 -85 -3 -14 -20 -71 -76
-250 -12 -41 -24 -79 -25 -85 -1 -5 -45 -154 -98 -330 -53 -176 -99 -327 -101
-335 -2 -8 -15 -53 -30 -100 -14 -47 -28 -92 -30 -100 -2 -8 -4 -16 -4 -17 -1
-2 -1 -5 -1 -8 -1 -3 -8 -24 -16 -47 -17 -46 -22 -65 -23 -85 -2 -33 -18 -6
-39 65 -13 42 -36 120 -52 172 -16 52 -40 133 -54 180 -14 47 -60 200 -102
340 -42 140 -77 260 -79 265 -1 6 -5 17 -8 25 -7 18 -49 161 -51 175 -1 6 -15
50 -30 99 -16 49 -29 94 -31 100 -1 6 -5 18 -8 26 -6 15 -55 182 -62 210 -2 8
-4 15 -5 15 -1 0 -3 7 -5 15 -2 8 -27 92 -55 185 -28 94 -52 175 -53 180 -2 6
-6 15 -10 22 -10 15 -1 19 48 22 21 1 40 3 41 4 1 1 43 0 94 -3 50 -3 97 -3
105 0z m1831 1 c49 0 96 0 104 0 8 1 69 1 135 0 66 0 127 0 135 0 8 1 56 1
105 0 50 0 97 0 105 0 8 0 73 0 144 -1 l129 -1 -35 -37 c-19 -20 -52 -57 -74
-81 -21 -24 -50 -56 -64 -71 -14 -15 -56 -63 -95 -106 -38 -43 -92 -103 -120
-133 -27 -31 -54 -60 -60 -67 -47 -52 -136 -151 -160 -178 -16 -18 -58 -64
-92 -102 -34 -38 -81 -90 -105 -115 -23 -26 -63 -70 -88 -99 -25 -29 -57 -64
-71 -79 -14 -14 -61 -66 -105 -115 -43 -50 -86 -97 -94 -106 -8 -9 -42 -47
-75 -84 -33 -37 -73 -82 -90 -100 -16 -18 -64 -71 -105 -116 -41 -46 -88 -98
-105 -116 -16 -17 -49 -54 -73 -81 -23 -27 -72 -81 -107 -119 -36 -38 -65 -72
-65 -76 0 -5 -4 -8 -9 -8 -10 0 -2 30 68 260 23 74 43 142 45 150 2 8 6 22 9
30 3 8 20 62 37 120 17 58 38 128 47 155 8 28 17 57 19 65 3 16 92 311 117
393 9 26 15 49 15 50 1 1 3 9 6 17 11 35 97 324 102 343 1 4 2 8 4 10 1 1 3 9
5 17 2 8 20 69 40 135 21 66 44 148 54 183 l16 62 118 -1 c65 0 121 2 124 5 3
3 9 4 13 1 4 -2 47 -4 96 -4z m-2600 -81 c14 -41 26 -84 28 -95 2 -11 9 -33
16 -50 6 -16 11 -32 11 -35 -1 -3 11 -43 25 -89 14 -47 27 -89 29 -95 1 -6 5
-18 8 -26 3 -8 22 -71 42 -140 20 -69 50 -169 66 -222 17 -53 32 -103 33 -110
1 -7 9 -35 18 -63 9 -27 28 -90 43 -140 14 -49 31 -101 36 -115 5 -14 11 -34
13 -46 2 -12 14 -52 26 -90 12 -38 26 -82 30 -99 5 -16 18 -61 30 -100 11 -38
23 -77 25 -85 2 -8 24 -80 48 -160 24 -80 43 -147 41 -148 -1 -2 -20 15 -41
39 -21 23 -48 53 -60 66 -31 34 -142 159 -162 182 -9 11 -41 46 -71 78 -30 33
-81 89 -112 124 -31 36 -71 81 -90 100 -39 43 -73 81 -192 214 -49 55 -96 107
-105 116 -9 9 -41 44 -71 79 -30 34 -66 75 -80 90 -119 131 -171 188 -187 206
-10 12 -52 58 -93 104 -41 46 -82 91 -90 100 -8 9 -49 54 -90 100 -41 46 -82
90 -90 100 -8 9 -49 54 -90 100 -41 46 -79 88 -85 95 -5 6 -28 30 -49 53 l-39
41 603 -2 603 -2 23 -75z"/>
</g>
</svg>
