<svg width="16" height="16" viewBox="0 0 16 16" fill="none" xmlns="http://www.w3.org/2000/svg">
<path fill-rule="evenodd" clip-rule="evenodd" d="M8.00002 2.66663C9.81838 2.66663 11.5571 3.62038 13.1775 5.18739C13.7304 5.72199 14.2305 6.29273 14.6707 6.86371C14.9364 7.20825 15.125 7.47929 15.2283 7.64076L15.458 7.99996L15.2283 8.35916C15.125 8.52063 14.9364 8.79167 14.6707 9.13621C14.2305 9.70719 13.7304 10.2779 13.1775 10.8125C11.5571 12.3795 9.81838 13.3333 8.00002 13.3333C6.18165 13.3333 4.4429 12.3795 2.82249 10.8125C2.26968 10.2779 1.76955 9.70719 1.32929 9.13621C1.06362 8.79167 0.874998 8.52063 0.771725 8.35916L0.541992 7.99996L0.771725 7.64076C0.874998 7.47929 1.06362 7.20825 1.32929 6.86371C1.76955 6.29273 2.26968 5.72199 2.82249 5.18739C4.4429 3.62038 6.18165 2.66663 8.00002 2.66663ZM13.6149 7.67788C13.2118 7.15511 12.7535 6.63209 12.2507 6.14586C10.855 4.79621 9.4034 3.99996 8.00002 3.99996C6.59663 3.99996 5.14501 4.79621 3.74938 6.14586C3.24657 6.63209 2.78827 7.15511 2.38518 7.67788C2.29812 7.79078 2.21767 7.89851 2.14413 7.99996C2.21767 8.10141 2.29812 8.20914 2.38518 8.32204C2.78827 8.84481 3.24657 9.36782 3.74938 9.85406C5.14501 11.2037 6.59663 12 8.00002 12C9.4034 12 10.855 11.2037 12.2507 9.85406C12.7535 9.36782 13.2118 8.84481 13.6149 8.32204C13.7019 8.20914 13.7824 8.10141 13.8559 7.99996C13.7824 7.89851 13.7019 7.79078 13.6149 7.67788ZM5.33335 7.99996C5.33335 9.47272 6.52726 10.6666 8.00002 10.6666C9.47277 10.6666 10.6667 9.47272 10.6667 7.99996C10.6667 6.5272 9.47277 5.33329 8.00002 5.33329C6.52726 5.33329 5.33335 6.5272 5.33335 7.99996ZM9.33335 7.99996C9.33335 8.73634 8.73639 9.33329 8.00002 9.33329C7.26364 9.33329 6.66668 8.73634 6.66668 7.99996C6.66668 7.26358 7.26364 6.66663 8.00002 6.66663C8.73639 6.66663 9.33335 7.26358 9.33335 7.99996Z" fill="#9564AA"/>
</svg>
