<svg width="16" height="16" viewBox="0 0 16 16" xmlns="http://www.w3.org/2000/svg">
<path fill-rule="evenodd" clip-rule="evenodd" d="M3.66467 4.66671C3.44587 4.30896 3.33331 3.86861 3.33331 3.33337C3.33331 2.2781 4.12688 1.33337 5.33331 1.33337C6.54131 1.33337 7.51549 2.14246 7.99998 3.40926C8.48447 2.14246 9.45865 1.33337 10.6666 1.33337C11.8731 1.33337 12.6666 2.2781 12.6666 3.33337C12.6666 3.86861 12.5541 4.30896 12.3353 4.66671H13.3333C14.0697 4.66671 14.6666 5.26366 14.6666 6.00004V7.33337C14.6666 8.06975 14.0697 8.66671 13.3333 8.66671V13.3334C13.3333 14.0698 12.7364 14.6667 12 14.6667H3.99998C3.2636 14.6667 2.66665 14.0698 2.66665 13.3334V8.66671C1.93027 8.66671 1.33331 8.06975 1.33331 7.33337V6.00004C1.33331 5.26366 1.93027 4.66671 2.66665 4.66671H3.66467ZM7.33331 6.00004H2.66665V7.33337H7.33331V6.00004ZM13.3333 7.33337H8.66665V6.00004H13.3333V7.33337ZM7.33331 13.3334V8.66671H3.99998V13.3334H7.33331ZM12 13.3334H8.66665V8.66671H12V13.3334ZM5.33331 2.66671C4.91974 2.66671 4.66665 2.96802 4.66665 3.33337C4.66665 4.16886 5.34465 4.56612 6.95293 4.6497C6.77418 3.40777 6.1081 2.66671 5.33331 2.66671ZM8.99998 4.6497C9.17872 3.40777 9.84481 2.66671 10.6196 2.66671C11.0332 2.66671 11.2863 2.96802 11.2863 3.33337C11.2863 4.16886 10.6083 4.56612 8.99998 4.6497Z"/>
</svg>
