<svg width="16" height="16" viewBox="0 0 16 16" fill="none" xmlns="http://www.w3.org/2000/svg">
<path fill-rule="evenodd" clip-rule="evenodd" d="M11.0355 1.33338C10.0704 1.33337 9.44828 1.44835 8.73512 1.79742C8.47109 1.92666 8.22338 2.0823 7.99333 2.26388C7.77215 2.09248 7.53434 1.94399 7.28123 1.8188C6.55423 1.45922 5.90021 1.33337 4.96972 1.33337C2.47764 1.33337 0.666687 3.39822 0.666687 6.07996C0.666687 8.10521 1.79591 10.0616 3.89925 11.9533C5.00328 12.9463 6.4129 13.9289 7.42242 14.4517L8.00002 14.7508L8.57762 14.4517C9.58714 13.9289 10.9968 12.9463 12.1008 11.9533C14.2041 10.0616 15.3334 8.10521 15.3334 6.07996C15.3334 3.4266 13.5053 1.34361 11.0355 1.33338ZM14 6.07996C14 7.66664 13.0575 9.29959 11.2092 10.9619C10.2015 11.8683 8.906 12.774 8.00002 13.2492C7.09405 12.774 5.79857 11.8683 4.79087 10.9619C2.94257 9.29959 2.00002 7.66664 2.00002 6.07996C2.00002 4.09852 3.25578 2.66671 4.96972 2.66671C5.70954 2.66671 6.16544 2.75443 6.69011 3.01394C7.00002 3.16722 7.27394 3.36962 7.51104 3.62255L8.00158 4.14584L8.48765 3.61841C8.73009 3.35534 9.00803 3.14833 9.3213 2.99499C9.8306 2.7457 10.258 2.66671 11.0327 2.66671C12.7255 2.67373 14 4.12602 14 6.07996Z" fill="#9564AA"/>
</svg>
